<?xml version="1.0" encoding="UTF-8"?>
<svg xmlns="http://www.w3.org/2000/svg" xmlns:xlink="http://www.w3.org/1999/xlink" width="109.03pt" height="100.44pt" viewBox="0 0 109.03 100.44" version="1.2">
<g id="surface1" transform="scale(0.5 0.5)">
<path style="fill-rule:nonzero;fill:rgb(33.789062%,81.834412%,80.859375%);fill-opacity:1;stroke-width:5;stroke-linecap:round;stroke-linejoin:round;stroke:rgb(0%,0%,0%);stroke-opacity:1;stroke-miterlimit:10;" d="M 1389.911141 891.036304 L 721.338343 1105.0408 L 1012.23538 1059.886047 " transform="matrix(0.0995708,0,0,-0.0995708,0,200.389145)"/>
<path style="fill-rule:nonzero;fill:rgb(33.789062%,81.834412%,80.859375%);fill-opacity:1;stroke-width:5;stroke-linecap:round;stroke-linejoin:round;stroke:rgb(0%,0%,0%);stroke-opacity:1;stroke-miterlimit:10;" d="M 1012.23538 1059.886047 L 1636.477274 861.6916 L 1389.911141 891.036304 " transform="matrix(0.0995708,0,0,-0.0995708,0,200.389145)"/>
<path style="fill-rule:nonzero;fill:rgb(33.68988%,12.010193%,12.010193%);fill-opacity:1;stroke-width:5;stroke-linecap:round;stroke-linejoin:round;stroke:rgb(0%,0%,0%);stroke-opacity:1;stroke-miterlimit:10;" d="M 1389.911141 891.036304 L 721.338343 1105.0408 L 939.462082 857.650818 " transform="matrix(0.0995708,0,0,-0.0995708,0,200.389145)"/>
<path style="fill-rule:nonzero;fill:rgb(33.68988%,12.010193%,12.010193%);fill-opacity:1;stroke-width:5;stroke-linecap:round;stroke-linejoin:round;stroke:rgb(0%,0%,0%);stroke-opacity:1;stroke-miterlimit:10;" d="M 939.462082 857.650818 L 1562.683973 652.120194 L 1389.911141 891.036304 " transform="matrix(0.0995708,0,0,-0.0995708,0,200.389145)"/>
<path style="fill-rule:nonzero;fill:rgb(61.914062%,86.326599%,98.826599%);fill-opacity:1;stroke-width:5;stroke-linecap:round;stroke-linejoin:round;stroke:rgb(0%,0%,0%);stroke-opacity:1;stroke-miterlimit:10;" d="M 1389.911141 891.036304 L 721.338343 1105.0408 L 1058.841675 1266.907445 " transform="matrix(0.0995708,0,0,-0.0995708,0,200.389145)"/>
<path style="fill-rule:nonzero;fill:rgb(61.914062%,86.326599%,98.826599%);fill-opacity:1;stroke-width:5;stroke-linecap:round;stroke-linejoin:round;stroke:rgb(0%,0%,0%);stroke-opacity:1;stroke-miterlimit:10;" d="M 1058.841675 1266.907445 L 1688.183585 1074.558399 L 1389.911141 891.036304 " transform="matrix(0.0995708,0,0,-0.0995708,0,200.389145)"/>
<path style="fill-rule:nonzero;fill:rgb(45.605469%,14.404297%,34.692383%);fill-opacity:1;stroke-width:5;stroke-linecap:round;stroke-linejoin:round;stroke:rgb(0%,0%,0%);stroke-opacity:1;stroke-miterlimit:10;" d="M 1389.911141 891.036304 L 721.338343 1105.0408 L 845.896413 675.541035 " transform="matrix(0.0995708,0,0,-0.0995708,0,200.389145)"/>
<path style="fill-rule:nonzero;fill:rgb(45.605469%,14.404297%,34.692383%);fill-opacity:1;stroke-width:5;stroke-linecap:round;stroke-linejoin:round;stroke:rgb(0%,0%,0%);stroke-opacity:1;stroke-miterlimit:10;" d="M 845.896413 675.541035 L 1472.256776 461.732693 L 1389.911141 891.036304 " transform="matrix(0.0995708,0,0,-0.0995708,0,200.389145)"/>
<path style="fill-rule:nonzero;fill:rgb(65.625%,75.193787%,91.992188%);fill-opacity:1;stroke-width:5;stroke-linecap:round;stroke-linejoin:round;stroke:rgb(0%,0%,0%);stroke-opacity:1;stroke-miterlimit:10;" d="M 1389.911141 891.036304 L 721.338343 1105.0408 L 1075.279417 1462.826501 " transform="matrix(0.0995708,0,0,-0.0995708,0,200.389145)"/>
<path style="fill-rule:nonzero;fill:rgb(65.625%,75.193787%,91.992188%);fill-opacity:1;stroke-width:5;stroke-linecap:round;stroke-linejoin:round;stroke:rgb(0%,0%,0%);stroke-opacity:1;stroke-miterlimit:10;" d="M 1075.279417 1462.826501 L 1713.526739 1274.675161 L 1389.911141 891.036304 " transform="matrix(0.0995708,0,0,-0.0995708,0,200.389145)"/>
<path style="fill-rule:nonzero;fill:rgb(54.492188%,32.397461%,53.125%);fill-opacity:1;stroke-width:5;stroke-linecap:round;stroke-linejoin:round;stroke:rgb(0%,0%,0%);stroke-opacity:1;stroke-miterlimit:10;" d="M 1389.911141 891.036304 L 721.338343 1105.0408 L 738.286087 528.503665 " transform="matrix(0.0995708,0,0,-0.0995708,0,200.389145)"/>
<path style="fill-rule:nonzero;fill:rgb(54.492188%,32.397461%,53.125%);fill-opacity:1;stroke-width:5;stroke-linecap:round;stroke-linejoin:round;stroke:rgb(0%,0%,0%);stroke-opacity:1;stroke-miterlimit:10;" d="M 738.286087 528.503665 L 1371.708009 305.868374 L 1389.911141 891.036304 " transform="matrix(0.0995708,0,0,-0.0995708,0,200.389145)"/>
<path style="fill-rule:nonzero;fill:rgb(65.039062%,66.014099%,84.568787%);fill-opacity:1;stroke-width:5;stroke-linecap:round;stroke-linejoin:round;stroke:rgb(0%,0%,0%);stroke-opacity:1;stroke-miterlimit:10;" d="M 1389.911141 891.036304 L 721.338343 1105.0408 L 1059.116291 1631.558551 " transform="matrix(0.0995708,0,0,-0.0995708,0,200.389145)"/>
<path style="fill-rule:nonzero;fill:rgb(65.039062%,66.014099%,84.568787%);fill-opacity:1;stroke-width:5;stroke-linecap:round;stroke-linejoin:round;stroke:rgb(0%,0%,0%);stroke-opacity:1;stroke-miterlimit:10;" d="M 1059.116291 1631.558551 L 1709.485957 1445.604141 L 1389.911141 891.036304 " transform="matrix(0.0995708,0,0,-0.0995708,0,200.389145)"/>
<path style="fill-rule:nonzero;fill:rgb(58.789062%,43.188477%,63.671875%);fill-opacity:1;stroke-width:5;stroke-linecap:round;stroke-linejoin:round;stroke:rgb(0%,0%,0%);stroke-opacity:1;stroke-miterlimit:10;" d="M 1389.911141 891.036304 L 721.338343 1105.0408 L 624.90882 430.387214 " transform="matrix(0.0995708,0,0,-0.0995708,0,200.389145)"/>
<path style="fill-rule:nonzero;fill:rgb(58.789062%,43.188477%,63.671875%);fill-opacity:1;stroke-width:5;stroke-linecap:round;stroke-linejoin:round;stroke:rgb(0%,0%,0%);stroke-opacity:1;stroke-miterlimit:10;" d="M 624.90882 430.387214 L 1268.805389 199.199589 L 1389.911141 891.036304 " transform="matrix(0.0995708,0,0,-0.0995708,0,200.389145)"/>
<path style="fill-rule:nonzero;fill:rgb(63.476562%,58.396912%,77.929688%);fill-opacity:1;stroke-width:5;stroke-linecap:round;stroke-linejoin:round;stroke:rgb(0%,0%,0%);stroke-opacity:1;stroke-miterlimit:10;" d="M 1389.911141 891.036304 L 721.338343 1105.0408 L 1009.881526 1757.175856 " transform="matrix(0.0995708,0,0,-0.0995708,0,200.389145)"/>
<path style="fill-rule:nonzero;fill:rgb(63.476562%,58.396912%,77.929688%);fill-opacity:1;stroke-width:5;stroke-linecap:round;stroke-linejoin:round;stroke:rgb(0%,0%,0%);stroke-opacity:1;stroke-miterlimit:10;" d="M 1009.881526 1757.175856 L 1674.609697 1571.103752 L 1389.911141 891.036304 " transform="matrix(0.0995708,0,0,-0.0995708,0,200.389145)"/>
<path style="fill-rule:nonzero;fill:rgb(61.521912%,51.171875%,71.484375%);fill-opacity:1;stroke-width:5;stroke-linecap:round;stroke-linejoin:round;stroke:rgb(0%,0%,0%);stroke-opacity:1;stroke-miterlimit:10;" d="M 1389.911141 891.036304 L 721.338343 1105.0408 L 515.376179 393.196332 " transform="matrix(0.0995708,0,0,-0.0995708,0,200.389145)"/>
<path style="fill-rule:nonzero;fill:rgb(61.521912%,51.171875%,71.484375%);fill-opacity:1;stroke-width:5;stroke-linecap:round;stroke-linejoin:round;stroke:rgb(0%,0%,0%);stroke-opacity:1;stroke-miterlimit:10;" d="M 515.376179 393.196332 L 1172.493558 154.437145 L 1389.911141 891.036304 " transform="matrix(0.0995708,0,0,-0.0995708,0,200.389145)"/>
<path style="fill-rule:nonzero;fill:rgb(63.476562%,58.396912%,77.929688%);fill-opacity:1;stroke-width:5;stroke-linecap:round;stroke-linejoin:round;stroke:rgb(0%,0%,0%);stroke-opacity:1;stroke-miterlimit:10;" d="M 1389.911141 891.036304 L 721.338343 1105.0408 L 420.555122 425.169506 " transform="matrix(0.0995708,0,0,-0.0995708,0,200.389145)"/>
<path style="fill-rule:nonzero;fill:rgb(65.039062%,66.014099%,84.568787%);fill-opacity:1;stroke-width:5;stroke-linecap:round;stroke-linejoin:round;stroke:rgb(0%,0%,0%);stroke-opacity:1;stroke-miterlimit:10;" d="M 1389.911141 891.036304 L 721.338343 1105.0408 L 351.508759 528.582127 " transform="matrix(0.0995708,0,0,-0.0995708,0,200.389145)"/>
<path style="fill-rule:nonzero;fill:rgb(65.625%,75.193787%,91.992188%);fill-opacity:1;stroke-width:5;stroke-linecap:round;stroke-linejoin:round;stroke:rgb(0%,0%,0%);stroke-opacity:1;stroke-miterlimit:10;" d="M 1389.911141 891.036304 L 721.338343 1105.0408 L 317.96635 697.235716 " transform="matrix(0.0995708,0,0,-0.0995708,0,200.389145)"/>
<path style="fill-rule:nonzero;fill:rgb(61.914062%,86.326599%,98.826599%);fill-opacity:1;stroke-width:5;stroke-linecap:round;stroke-linejoin:round;stroke:rgb(0%,0%,0%);stroke-opacity:1;stroke-miterlimit:10;" d="M 1389.911141 891.036304 L 721.338343 1105.0408 L 326.008682 915.477147 " transform="matrix(0.0995708,0,0,-0.0995708,0,200.389145)"/>
<path style="fill-rule:nonzero;fill:rgb(33.789062%,81.834412%,80.859375%);fill-opacity:1;stroke-width:5;stroke-linecap:round;stroke-linejoin:round;stroke:rgb(0%,0%,0%);stroke-opacity:1;stroke-miterlimit:10;" d="M 1389.911141 891.036304 L 721.338343 1105.0408 L 376.538066 1158.590962 " transform="matrix(0.0995708,0,0,-0.0995708,0,200.389145)"/>
<path style="fill-rule:nonzero;fill:rgb(61.521912%,51.171875%,71.484375%);fill-opacity:1;stroke-width:5;stroke-linecap:round;stroke-linejoin:round;stroke:rgb(0%,0%,0%);stroke-opacity:1;stroke-miterlimit:10;" d="M 1389.911141 891.036304 L 721.338343 1105.0408 L 929.693591 1825.006061 " transform="matrix(0.0995708,0,0,-0.0995708,0,200.389145)"/>
<path style="fill-rule:nonzero;fill:rgb(58.789062%,43.188477%,63.671875%);fill-opacity:1;stroke-width:5;stroke-linecap:round;stroke-linejoin:round;stroke:rgb(0%,0%,0%);stroke-opacity:1;stroke-miterlimit:10;" d="M 1389.911141 891.036304 L 721.338343 1105.0408 L 824.12327 1823.750673 " transform="matrix(0.0995708,0,0,-0.0995708,0,200.389145)"/>
<path style="fill-rule:nonzero;fill:rgb(54.492188%,32.397461%,53.125%);fill-opacity:1;stroke-width:5;stroke-linecap:round;stroke-linejoin:round;stroke:rgb(0%,0%,0%);stroke-opacity:1;stroke-miterlimit:10;" d="M 1389.911141 891.036304 L 721.338343 1105.0408 L 702.468286 1748.035059 " transform="matrix(0.0995708,0,0,-0.0995708,0,200.389145)"/>
<path style="fill-rule:nonzero;fill:rgb(45.605469%,14.404297%,34.692383%);fill-opacity:1;stroke-width:5;stroke-linecap:round;stroke-linejoin:round;stroke:rgb(0%,0%,0%);stroke-opacity:1;stroke-miterlimit:10;" d="M 1389.911141 891.036304 L 721.338343 1105.0408 L 577.478676 1601.193844 " transform="matrix(0.0995708,0,0,-0.0995708,0,200.389145)"/>
<path style="fill-rule:nonzero;fill:rgb(33.68988%,12.010193%,12.010193%);fill-opacity:1;stroke-width:5;stroke-linecap:round;stroke-linejoin:round;stroke:rgb(0%,0%,0%);stroke-opacity:1;stroke-miterlimit:10;" d="M 1389.911141 891.036304 L 721.338343 1105.0408 L 464.062178 1396.957839 " transform="matrix(0.0995708,0,0,-0.0995708,0,200.389145)"/>
<path style="fill-rule:nonzero;fill:rgb(61.521912%,51.171875%,71.484375%);fill-opacity:1;stroke-width:5;stroke-linecap:round;stroke-linejoin:round;stroke:rgb(0%,0%,0%);stroke-opacity:1;stroke-miterlimit:10;" d="M 929.693591 1825.006061 L 1609.878732 1636.305489 L 1389.911141 891.036304 " transform="matrix(0.0995708,0,0,-0.0995708,0,200.389145)"/>
<path style="fill-rule:nonzero;fill:rgb(63.476562%,58.396912%,77.929688%);fill-opacity:1;stroke-width:5;stroke-linecap:round;stroke-linejoin:round;stroke:rgb(0%,0%,0%);stroke-opacity:1;stroke-miterlimit:10;" d="M 420.555122 425.169506 L 1092.580239 180.878764 L 1389.911141 891.036304 " transform="matrix(0.0995708,0,0,-0.0995708,0,200.389145)"/>
<path style="fill-rule:nonzero;fill:rgb(58.789062%,43.188477%,63.671875%);fill-opacity:1;stroke-width:5;stroke-linecap:round;stroke-linejoin:round;stroke:rgb(0%,0%,0%);stroke-opacity:1;stroke-miterlimit:10;" d="M 824.12327 1823.750673 L 1519.216149 1629.75393 L 1389.911141 891.036304 " transform="matrix(0.0995708,0,0,-0.0995708,0,200.389145)"/>
<path style="fill-rule:nonzero;fill:rgb(65.039062%,66.014099%,84.568787%);fill-opacity:1;stroke-width:5;stroke-linecap:round;stroke-linejoin:round;stroke:rgb(0%,0%,0%);stroke-opacity:1;stroke-miterlimit:10;" d="M 351.508759 528.582127 L 1038.794691 281.780609 L 1389.911141 891.036304 " transform="matrix(0.0995708,0,0,-0.0995708,0,200.389145)"/>
<path style="fill-rule:nonzero;fill:rgb(65.625%,75.193787%,91.992188%);fill-opacity:1;stroke-width:5;stroke-linecap:round;stroke-linejoin:round;stroke:rgb(0%,0%,0%);stroke-opacity:1;stroke-miterlimit:10;" d="M 317.96635 697.235716 L 1019.179247 451.611124 L 1389.911141 891.036304 " transform="matrix(0.0995708,0,0,-0.0995708,0,200.389145)"/>
<path style="fill-rule:nonzero;fill:rgb(61.914062%,86.326599%,98.826599%);fill-opacity:1;stroke-width:5;stroke-linecap:round;stroke-linejoin:round;stroke:rgb(0%,0%,0%);stroke-opacity:1;stroke-miterlimit:10;" d="M 326.008682 915.477147 L 1038.363151 674.756417 L 1389.911141 891.036304 " transform="matrix(0.0995708,0,0,-0.0995708,0,200.389145)"/>
<path style="fill-rule:nonzero;fill:rgb(33.789062%,81.834412%,80.859375%);fill-opacity:1;stroke-width:5;stroke-linecap:round;stroke-linejoin:round;stroke:rgb(0%,0%,0%);stroke-opacity:1;stroke-miterlimit:10;" d="M 376.538066 1158.590962 L 1095.71871 926.069487 L 1389.911141 891.036304 " transform="matrix(0.0995708,0,0,-0.0995708,0,200.389145)"/>
<path style="fill-rule:nonzero;fill:rgb(54.492188%,32.397461%,53.125%);fill-opacity:1;stroke-width:5;stroke-linecap:round;stroke-linejoin:round;stroke:rgb(0%,0%,0%);stroke-opacity:1;stroke-miterlimit:10;" d="M 702.468286 1748.035059 L 1410.271972 1546.231369 L 1389.911141 891.036304 " transform="matrix(0.0995708,0,0,-0.0995708,0,200.389145)"/>
<path style="fill-rule:nonzero;fill:rgb(45.605469%,14.404297%,34.692383%);fill-opacity:1;stroke-width:5;stroke-linecap:round;stroke-linejoin:round;stroke:rgb(0%,0%,0%);stroke-opacity:1;stroke-miterlimit:10;" d="M 577.478676 1601.193844 L 1294.227005 1389.582432 L 1389.911141 891.036304 " transform="matrix(0.0995708,0,0,-0.0995708,0,200.389145)"/>
<path style="fill-rule:nonzero;fill:rgb(33.68988%,12.010193%,12.010193%);fill-opacity:1;stroke-width:5;stroke-linecap:round;stroke-linejoin:round;stroke:rgb(0%,0%,0%);stroke-opacity:1;stroke-miterlimit:10;" d="M 464.062178 1396.957839 L 1184.772826 1174.636395 L 1389.911141 891.036304 " transform="matrix(0.0995708,0,0,-0.0995708,0,200.389145)"/>
<path style="fill:none;stroke-width:45.6469;stroke-linecap:round;stroke-linejoin:round;stroke:rgb(0%,0%,0%);stroke-opacity:1;stroke-miterlimit:10;" d="M 98.547991 1304.451405 L 2109.366401 660.672528 " transform="matrix(0.0995708,0,0,-0.0995708,0,200.389145)"/>
</g>
</svg>
